<svg data-noselect="" viewBox="0 0 800 600" width="800" height="600" preserveAspectRatio="none" version="1.1" xmlns="http://www.w3.org/2000/svg" xmlns:xlink="http://www.w3.org/1999/xlink" class="svg-canvas"><defs></defs> <g id="background" data-noselect=""><rect x="0" y="0" fill="#ffffff" width="800" height="600" data-noselect=""></rect> <!----></g> <g id="shape_YcrW5mKQIA" transform="translate(160,219.06842010987) rotate(0,82.194438182105,80.803615830797) scale(1,1)" filter="" style="opacity: 1;"><g><rect fill="rgba(0,0,0,0)" width="184.38887636421" height="181.60723166159" x="-10" y="-10"></rect><svg version="1.1" id="图层_1" xmlns="http://www.w3.org/2000/svg" xmlns:xlink="http://www.w3.org/1999/xlink" x="0px" y="0px" viewBox="0 0 201 158.8" style="enable-background:new 0 0 201 158.8;" xml:space="preserve" width="164.38887636421" height="161.60723166159" class="style-removed" preserveAspectRatio="none" data-parent="shape_YcrW5mKQIA">

<g>
	<path d="M118.1,8c10.2,1.5,24.1,12.3,9.5,39.2c-13.7,25.3-43.7,50.3-85.1,54.6c-44.3,4.6-31.1-19.9-24.7-26.2
		c7.8-7.8,37.8-23.2,37.8-23.2S88.6,3.6,118.1,8z" fill="#fff100" stroke-width="0"></path>
	<path d="M124.8,142.2c-0.7,4.9-3.8,8.9-7.6,11.6c-3.8,2.7-8.3,4.2-12.7,4.7c-4.4,0.5-8.9,0.3-13.2-0.4
		c-2.1-0.3-4.2-0.9-6.3-1.5c-1-0.3-2.1-0.6-3.1-1c-1-0.3-2-0.7-3.1-1.1c-8.3-3.5-15.5-9.3-20.8-16.2c-5.4-6.9-9.4-14.7-12.1-22.9
		c-5.2-16.4-5.6-34.2-1.1-50.9c4.5-16.6,13.9-32,26.6-43.6c6.3-5.8,13.5-10.9,21.5-14.6c8-3.7,16.7-6.2,26.1-6.4
		c4.7,0,9.5,0.5,14.2,2.1c4.7,1.5,9.3,4.1,13.1,7.7c3.8,3.6,6.6,8.2,8.2,13c1.6,4.8,2.2,9.6,2.1,14.2c-0.1,9.4-2.8,18.3-6.9,26.2
		c-4.1,7.9-9.4,14.7-15.4,20.8c-11.9,12.1-26.2,21.3-41.4,28c-15.3,6.6-31.8,10.7-48.7,11.2c-4.2,0.1-8.5,0-12.8-0.5
		c-4.3-0.5-8.7-1.3-13.2-2.9c-4.4-1.6-9-4-12.7-8.2c-1.8-2.1-3.4-4.6-4.3-7.4c-1-2.7-1.3-5.6-1.2-8.3c0.2-5.5,2.1-10.2,4.3-14.3
		c2.3-4.1,5.1-7.6,8.2-10.8c3.1-3.2,6.5-5.9,10-8.4c1.8-1.2,3.6-2.4,5.5-3.5c1.8-1,3.6-2,5.5-3c14.7-7.5,30.2-12.6,45.9-16.5
		c15.8-3.8,32-6,48.3-6c16.3,0,32.9,2.5,48.3,8.9c1.9,0.9,3.8,1.7,5.7,2.6c1.8,1,3.7,1.9,5.6,3.1c3.7,2.3,7.2,5.2,10,9.1
		c1.4,2,2.5,4.2,3.1,6.7c0.6,2.5,0.8,5.1,0.3,7.6c-0.9,5.1-4.1,9.2-7.5,12.1c-7.1,5.8-15.5,8.1-23.7,9.2c-8.2,1.1-16.4,0.8-24.5-0.1
		c-1.5-0.2-2.7-1.6-2.5-3.1c0.2-1.5,1.5-2.6,3-2.5l0,0c7.7,0.6,15.4,0.4,22.9-0.9c3.7-0.7,7.3-1.6,10.7-3c3.4-1.4,6.5-3.1,9-5.4
		c2.5-2.2,4.2-5,4.6-7.7c0.4-2.7-0.5-5.5-2.4-8.1c-1.9-2.5-4.6-4.7-7.7-6.5c-1.5-0.9-3.3-1.7-4.9-2.5c-1.7-0.8-3.4-1.5-5.2-2.2
		c-14.1-5.3-29.4-7.1-44.7-6.7c-15.3,0.4-30.6,2.8-45.5,6.7c-14.9,3.9-29.5,9.3-42.9,16.3c-1.7,0.9-3.3,1.8-4.9,2.7
		c-1.6,0.9-3.1,1.9-4.5,3c-2.9,2.1-5.6,4.4-8,6.9c-2.4,2.5-4.5,5.3-6,8.1c-1.5,2.8-2.5,5.7-2.5,8.2c0,2.5,0.7,4.4,2.2,6.1
		c1.6,1.7,4.1,3.2,7.2,4.2c6.1,2.1,13.5,2.5,20.9,2.3c14.7-0.5,29.5-4.3,43.2-10.4c13.6-6.1,26.4-14.5,36.5-25.1
		c5.1-5.3,9.4-11.1,12.6-17.3c3.2-6.2,5.1-12.8,5.1-19.3c0.1-6.6-1.8-12.3-5.7-16c-3.9-3.7-9.9-5.6-16.4-5.5
		c-6.5,0.1-13.3,1.9-19.7,4.9c-6.3,3-12.3,7.1-17.6,12C76.7,37.3,72,42.9,68.2,49c-3.8,6.1-6.8,12.7-8.7,19.6
		c-1.9,6.9-3,14.1-3.1,21.4c-0.1,7.2,0.9,14.5,2.8,21.4C61,118.4,64,125,68,130.8c4.1,5.7,9.2,10.6,15.4,13.7
		c6.4,3.1,13.5,5.6,20.4,5.6c3.4,0,6.8-0.6,9.8-2.1c2.9-1.5,5.5-3.8,6.5-6.8l0.1-0.2c0.4-1.2,1.8-1.9,3.1-1.5
		C124.3,140,124.9,141.1,124.8,142.2z" fill="#00188f" stroke-width="0"></path>
</g>
</svg></g></g><g id="shape_2l5D2eIs67" transform="translate(311.90673668128,238.905821360715) rotate(0,173.47,64.677763671875) scale(1,1)" filter="" style="opacity: 1;"><g><svg xmlns="http://www.w3.org/2000/svg" version="1.1" xmlns:xlink="http://www.w3.org/1999/xlink" width="382.88" height="129.35552734375" viewBox="0 0 382.88 129.35552734375"><g data-width="309.8878065234375" transform="translate(17.97, 0)"><path d="M1.78 0L-0.03 0L4.91-12.86L6.75-12.86L12.01 0L10.07 0L8.57-3.90L3.19-3.90L1.78 0ZM5.10-9.06L3.69-5.28L8.05-5.28L6.70-8.84Q6.09-10.47 5.79-11.51L5.79-11.51Q5.55-10.27 5.10-9.06L5.10-9.06Z" transform="translate(0 70.177763671875) " fill="#00188f" stroke="#00188f" stroke-width="0.03" data-glyph-w="11.985849609374998" data-glyph-h="20.075859375" data-glyph-ascender="16.267763671875" data-glyph-descender="-3.808095703125"></path><path d="M6.03 0L1.39 0L1.39-12.86L5.82-12.86Q7.32-12.86 8.11-12.68L8.11-12.68Q9.21-12.42 9.99-11.76L9.99-11.76Q11.01-10.90 11.52-9.56Q12.02-8.22 12.02-6.50L12.02-6.50Q12.02-5.04 11.68-3.90Q11.34-2.77 10.80-2.03Q10.27-1.29 9.63-0.86Q8.99-0.44 8.09-0.22Q7.20 0 6.03 0L6.03 0ZM3.09-11.35L3.09-1.52L5.83-1.52Q7.11-1.52 7.83-1.75Q8.56-1.99 8.98-2.42L8.98-2.42Q9.59-3.03 9.93-4.05Q10.27-5.07 10.27-6.53L10.27-6.53Q10.27-8.55 9.60-9.63Q8.94-10.71 7.99-11.08L7.99-11.08Q7.31-11.35 5.79-11.35L5.79-11.35L3.09-11.35Z" transform="translate(11.985849609374998 70.177763671875) " fill="#00188f" stroke="#00188f" stroke-width="0.03" data-glyph-w="12.977358398437499" data-glyph-h="20.075859375" data-glyph-ascender="16.267763671875" data-glyph-descender="-3.808095703125"></path><path d="M0.52-3.65L0.52-3.65L2.05-3.86Q2.11-2.39 2.61-1.84Q3.10-1.30 3.97-1.30L3.97-1.30Q4.61-1.30 5.07-1.59Q5.54-1.89 5.71-2.39Q5.89-2.90 5.89-4.00L5.89-4.00L5.89-12.86L7.59-12.86L7.59-4.10Q7.59-2.48 7.20-1.60Q6.81-0.71 5.96-0.25Q5.12 0.22 3.97 0.22L3.97 0.22Q2.28 0.22 1.38-0.75Q0.48-1.73 0.52-3.65Z" transform="translate(24.963208007812497 70.177763671875) " fill="#00188f" stroke="#00188f" stroke-width="0.03" data-glyph-w="8.985" data-glyph-h="20.075859375" data-glyph-ascender="16.267763671875" data-glyph-descender="-3.808095703125"></path><path d="M9.83-5.44L9.83-12.86L11.53-12.86L11.53-5.43Q11.53-3.49 11.09-2.35Q10.65-1.21 9.51-0.50Q8.36 0.22 6.50 0.22L6.50 0.22Q4.69 0.22 3.54-0.40Q2.40-1.03 1.90-2.21Q1.41-3.39 1.41-5.43L1.41-5.43L1.41-12.86L3.11-12.86L3.11-5.44Q3.11-3.76 3.43-2.97Q3.74-2.18 4.50-1.75Q5.26-1.32 6.35-1.32L6.35-1.32Q8.23-1.32 9.03-2.17Q9.83-3.02 9.83-5.44L9.83-5.44Z" transform="translate(33.9482080078125 70.177763671875) " fill="#00188f" stroke="#00188f" stroke-width="0.03" data-glyph-w="12.977358398437499" data-glyph-h="20.075859375" data-glyph-ascender="16.267763671875" data-glyph-descender="-3.808095703125"></path><path d="M0.81-4.13L0.81-4.13L2.41-4.27Q2.53-3.31 2.94-2.69Q3.36-2.07 4.24-1.69Q5.12-1.31 6.21-1.31L6.21-1.31Q7.19-1.31 7.93-1.60Q8.68-1.89 9.04-2.39Q9.41-2.90 9.41-3.49L9.41-3.49Q9.41-4.10 9.06-4.55Q8.70-5.00 7.90-5.31L7.90-5.31Q7.38-5.51 5.61-5.94Q3.83-6.36 3.12-6.74L3.12-6.74Q2.20-7.22 1.75-7.94Q1.30-8.65 1.30-9.54L1.30-9.54Q1.30-10.51 1.85-11.36Q2.40-12.21 3.47-12.64Q4.53-13.08 5.83-13.08L5.83-13.08Q7.26-13.08 8.35-12.62Q9.44-12.16 10.03-11.27Q10.62-10.37 10.66-9.24L10.66-9.24L9.03-9.12Q8.90-10.34 8.14-10.96Q7.38-11.58 5.90-11.58L5.90-11.58Q4.35-11.58 3.65-11.02Q2.94-10.45 2.94-9.65L2.94-9.65Q2.94-8.96 3.44-8.51L3.44-8.51Q3.93-8.06 6.01-7.59Q8.08-7.12 8.85-6.77L8.85-6.77Q9.98-6.26 10.51-5.46Q11.05-4.67 11.05-3.63L11.05-3.63Q11.05-2.61 10.46-1.70Q9.87-0.79 8.77-0.29Q7.67 0.22 6.29 0.22L6.29 0.22Q4.55 0.22 3.36-0.29Q2.18-0.80 1.51-1.82Q0.84-2.84 0.81-4.13Z" transform="translate(46.92556640625 70.177763671875) " fill="#00188f" stroke="#00188f" stroke-width="0.03" data-glyph-w="11.985849609374998" data-glyph-h="20.075859375" data-glyph-ascender="16.267763671875" data-glyph-descender="-3.808095703125"></path><path d="M6.36 0L4.66 0L4.66-11.35L0.42-11.35L0.42-12.86L10.62-12.86L10.62-11.35L6.36-11.35L6.36 0Z" transform="translate(58.911416015624994 70.177763671875) " fill="#00188f" stroke="#00188f" stroke-width="0.03" data-glyph-w="10.976791992187499" data-glyph-h="20.075859375" data-glyph-ascender="16.267763671875" data-glyph-descender="-3.808095703125"></path><path d="M1.78 0L-0.03 0L4.91-12.86L6.75-12.86L12.01 0L10.07 0L8.57-3.90L3.19-3.90L1.78 0ZM5.10-9.06L3.69-5.28L8.05-5.28L6.70-8.84Q6.09-10.47 5.79-11.51L5.79-11.51Q5.55-10.27 5.10-9.06L5.10-9.06Z" transform="translate(69.8882080078125 70.177763671875) " fill="#00188f" stroke="#00188f" stroke-width="0.03" data-glyph-w="11.985849609374998" data-glyph-h="20.075859375" data-glyph-ascender="16.267763671875" data-glyph-descender="-3.808095703125"></path><path d="M6.22 0L1.32 0L1.32-12.86L6.14-12.86Q7.62-12.86 8.51-12.47Q9.40-12.08 9.90-11.27Q10.41-10.46 10.41-9.57L10.41-9.57Q10.41-8.75 9.96-8.02Q9.51-7.29 8.61-6.84L8.61-6.84Q9.77-6.50 10.40-5.68Q11.03-4.85 11.03-3.73L11.03-3.73Q11.03-2.83 10.65-2.05Q10.27-1.27 9.70-0.85Q9.14-0.43 8.30-0.21Q7.45 0 6.22 0L6.22 0ZM3.02-11.35L3.02-7.46L5.80-7.46Q6.93-7.46 7.42-7.61L7.42-7.61Q8.07-7.80 8.40-8.25Q8.73-8.70 8.73-9.37L8.73-9.37Q8.73-10.01 8.42-10.50Q8.12-10.99 7.55-11.17Q6.98-11.35 5.59-11.35L5.59-11.35L3.02-11.35ZM3.02-5.94L3.02-1.52L6.22-1.52Q7.05-1.52 7.38-1.58L7.38-1.58Q7.97-1.68 8.36-1.93Q8.76-2.18 9.01-2.65Q9.27-3.11 9.27-3.73L9.27-3.73Q9.27-4.45 8.90-4.98Q8.53-5.51 7.88-5.73Q7.22-5.94 5.99-5.94L5.99-5.94L3.02-5.94Z" transform="translate(81.87405761718749 70.177763671875) " fill="#00188f" stroke="#00188f" stroke-width="0.03" data-glyph-w="11.985849609374998" data-glyph-h="20.075859375" data-glyph-ascender="16.267763671875" data-glyph-descender="-3.808095703125"></path><path d="M9.35 0L1.32 0L1.32-12.86L3.02-12.86L3.02-1.52L9.35-1.52L9.35 0Z" transform="translate(93.85990722656248 70.177763671875) " fill="#00188f" stroke="#00188f" stroke-width="0.03" data-glyph-w="9.994057617187499" data-glyph-h="20.075859375" data-glyph-ascender="16.267763671875" data-glyph-descender="-3.808095703125"></path><path d="M11.02 0L1.42 0L1.42-12.86L10.72-12.86L10.72-11.35L3.12-11.35L3.12-7.41L10.24-7.41L10.24-5.90L3.12-5.90L3.12-1.52L11.02-1.52L11.02 0Z" transform="translate(103.85396484374998 70.177763671875) " fill="#00188f" stroke="#00188f" stroke-width="0.03" data-glyph-w="11.985849609374998" data-glyph-h="20.075859375" data-glyph-ascender="16.267763671875" data-glyph-descender="-3.808095703125"></path><path d="" transform="translate(115.83981445312497 70.177763671875) " fill="#00188f" stroke="#00188f" stroke-width="0.03" data-glyph-w="7.15206" data-glyph-h="17.97" data-glyph-ascender="15.8136" data-glyph-descender="-2.1564"></path><path d="M0.81-4.13L0.81-4.13L2.41-4.27Q2.53-3.31 2.94-2.69Q3.36-2.07 4.24-1.69Q5.12-1.31 6.21-1.31L6.21-1.31Q7.19-1.31 7.93-1.60Q8.68-1.89 9.04-2.39Q9.41-2.90 9.41-3.49L9.41-3.49Q9.41-4.10 9.06-4.55Q8.70-5.00 7.90-5.31L7.90-5.31Q7.38-5.51 5.61-5.94Q3.83-6.36 3.12-6.74L3.12-6.74Q2.20-7.22 1.75-7.94Q1.30-8.65 1.30-9.54L1.30-9.54Q1.30-10.51 1.85-11.36Q2.40-12.21 3.47-12.64Q4.53-13.08 5.83-13.08L5.83-13.08Q7.26-13.08 8.35-12.62Q9.44-12.16 10.03-11.27Q10.62-10.37 10.66-9.24L10.66-9.24L9.03-9.12Q8.90-10.34 8.14-10.96Q7.38-11.58 5.90-11.58L5.90-11.58Q4.35-11.58 3.65-11.02Q2.94-10.45 2.94-9.65L2.94-9.65Q2.94-8.96 3.44-8.51L3.44-8.51Q3.93-8.06 6.01-7.59Q8.08-7.12 8.85-6.77L8.85-6.77Q9.98-6.26 10.51-5.46Q11.05-4.67 11.05-3.63L11.05-3.63Q11.05-2.61 10.46-1.70Q9.87-0.79 8.77-0.29Q7.67 0.22 6.29 0.22L6.29 0.22Q4.55 0.22 3.36-0.29Q2.18-0.80 1.51-1.82Q0.84-2.84 0.81-4.13Z" transform="translate(122.99187445312498 70.177763671875) " fill="#00188f" stroke="#00188f" stroke-width="0.03" data-glyph-w="11.985849609374998" data-glyph-h="20.075859375" data-glyph-ascender="16.267763671875" data-glyph-descender="-3.808095703125"></path><path d="M3.14 0L1.44 0L1.44-12.86L3.14-12.86L3.14-7.58L9.83-7.58L9.83-12.86L11.53-12.86L11.53 0L9.83 0L9.83-6.06L3.14-6.06L3.14 0Z" transform="translate(134.9777240625 70.177763671875) " fill="#00188f" stroke="#00188f" stroke-width="0.03" data-glyph-w="12.977358398437499" data-glyph-h="20.075859375" data-glyph-ascender="16.267763671875" data-glyph-descender="-3.808095703125"></path><path d="M1.78 0L-0.03 0L4.91-12.86L6.75-12.86L12.01 0L10.07 0L8.57-3.90L3.19-3.90L1.78 0ZM5.10-9.06L3.69-5.28L8.05-5.28L6.70-8.84Q6.09-10.47 5.79-11.51L5.79-11.51Q5.55-10.27 5.10-9.06L5.10-9.06Z" transform="translate(147.9550824609375 70.177763671875) " fill="#00188f" stroke="#00188f" stroke-width="0.03" data-glyph-w="11.985849609374998" data-glyph-h="20.075859375" data-glyph-ascender="16.267763671875" data-glyph-descender="-3.808095703125"></path><path d="M3.11 0L1.41 0L1.41-12.86L7.12-12.86Q8.84-12.86 9.73-12.52Q10.63-12.17 11.16-11.29Q11.70-10.42 11.70-9.35L11.70-9.35Q11.70-7.98 10.81-7.05Q9.92-6.11 8.07-5.85L8.07-5.85Q8.75-5.53 9.10-5.21L9.10-5.21Q9.84-4.53 10.51-3.50L10.51-3.50L12.75 0L10.61 0L8.91-2.68Q8.16-3.83 7.68-4.45Q7.20-5.06 6.81-5.31Q6.43-5.55 6.04-5.65L6.04-5.65Q5.75-5.71 5.09-5.71L5.09-5.71L3.11-5.71L3.11 0ZM3.11-11.44L3.11-7.19L6.77-7.19Q7.94-7.19 8.60-7.43Q9.26-7.67 9.60-8.20Q9.94-8.73 9.94-9.35L9.94-9.35Q9.94-10.27 9.28-10.85Q8.62-11.44 7.19-11.44L7.19-11.44L3.11-11.44Z" transform="translate(159.9409320703125 70.177763671875) " fill="#00188f" stroke="#00188f" stroke-width="0.03" data-glyph-w="12.977358398437499" data-glyph-h="20.075859375" data-glyph-ascender="16.267763671875" data-glyph-descender="-3.808095703125"></path><path d="M3.38 0L1.68 0L1.68-12.86L3.38-12.86L3.38 0Z" transform="translate(172.91829046875 70.177763671875) " fill="#00188f" stroke="#00188f" stroke-width="0.03" data-glyph-w="4.992641601562499" data-glyph-h="20.075859375" data-glyph-ascender="16.267763671875" data-glyph-descender="-3.808095703125"></path><path d="M3.00 0L1.37 0L1.37-12.86L3.11-12.86L9.87-2.76L9.87-12.86L11.50-12.86L11.50 0L9.76 0L3.00-10.11L3.00 0Z" transform="translate(177.9109320703125 70.177763671875) " fill="#00188f" stroke="#00188f" stroke-width="0.03" data-glyph-w="12.977358398437499" data-glyph-h="20.075859375" data-glyph-ascender="16.267763671875" data-glyph-descender="-3.808095703125"></path><path d="M11.19-5.05L7.41-5.05L7.41-6.55L12.85-6.56L12.85-1.79Q11.60-0.79 10.27-0.29Q8.93 0.22 7.53 0.22L7.53 0.22Q5.63 0.22 4.08-0.59Q2.54-1.40 1.75-2.94Q0.96-4.47 0.96-6.37L0.96-6.37Q0.96-8.25 1.74-9.88Q2.53-11.50 4.00-12.29Q5.48-13.08 7.40-13.08L7.40-13.08Q8.79-13.08 9.92-12.63Q11.05-12.18 11.69-11.37Q12.33-10.56 12.66-9.27L12.66-9.27L11.13-8.84Q10.84-9.83 10.41-10.39Q9.98-10.95 9.18-11.29Q8.38-11.63 7.41-11.63L7.41-11.63Q6.24-11.63 5.39-11.27Q4.54-10.92 4.01-10.34Q3.49-9.76 3.20-9.06L3.20-9.06Q2.71-7.87 2.71-6.48L2.71-6.48Q2.71-4.76 3.30-3.60Q3.90-2.44 5.03-1.88Q6.16-1.32 7.43-1.32L7.43-1.32Q8.54-1.32 9.59-1.74Q10.64-2.17 11.19-2.65L11.19-2.65L11.19-5.05Z" transform="translate(190.88829046875 70.177763671875) " fill="#00188f" stroke="#00188f" stroke-width="0.03" data-glyph-w="13.9776416015625" data-glyph-h="20.075859375" data-glyph-ascender="16.267763671875" data-glyph-descender="-3.808095703125"></path><path d="" transform="translate(204.8659320703125 70.177763671875) " fill="#00188f" stroke="#00188f" stroke-width="0.03" data-glyph-w="7.15206" data-glyph-h="17.97" data-glyph-ascender="15.8136" data-glyph-descender="-2.1564"></path><path d="M0.81-4.13L0.81-4.13L2.41-4.27Q2.53-3.31 2.94-2.69Q3.36-2.07 4.24-1.69Q5.12-1.31 6.21-1.31L6.21-1.31Q7.19-1.31 7.93-1.60Q8.68-1.89 9.04-2.39Q9.41-2.90 9.41-3.49L9.41-3.49Q9.41-4.10 9.06-4.55Q8.70-5.00 7.90-5.31L7.90-5.31Q7.38-5.51 5.61-5.94Q3.83-6.36 3.12-6.74L3.12-6.74Q2.20-7.22 1.75-7.94Q1.30-8.65 1.30-9.54L1.30-9.54Q1.30-10.51 1.85-11.36Q2.40-12.21 3.47-12.64Q4.53-13.08 5.83-13.08L5.83-13.08Q7.26-13.08 8.35-12.62Q9.44-12.16 10.03-11.27Q10.62-10.37 10.66-9.24L10.66-9.24L9.03-9.12Q8.90-10.34 8.14-10.96Q7.38-11.58 5.90-11.58L5.90-11.58Q4.35-11.58 3.65-11.02Q2.94-10.45 2.94-9.65L2.94-9.65Q2.94-8.96 3.44-8.51L3.44-8.51Q3.93-8.06 6.01-7.59Q8.08-7.12 8.85-6.77L8.85-6.77Q9.98-6.26 10.51-5.46Q11.05-4.67 11.05-3.63L11.05-3.63Q11.05-2.61 10.46-1.70Q9.87-0.79 8.77-0.29Q7.67 0.22 6.29 0.22L6.29 0.22Q4.55 0.22 3.36-0.29Q2.18-0.80 1.51-1.82Q0.84-2.84 0.81-4.13Z" transform="translate(212.01799207031252 70.177763671875) " fill="#00188f" stroke="#00188f" stroke-width="0.03" data-glyph-w="11.985849609374998" data-glyph-h="20.075859375" data-glyph-ascender="16.267763671875" data-glyph-descender="-3.808095703125"></path><path d="M9.83-5.44L9.83-12.86L11.53-12.86L11.53-5.43Q11.53-3.49 11.09-2.35Q10.65-1.21 9.51-0.50Q8.36 0.22 6.50 0.22L6.50 0.22Q4.69 0.22 3.54-0.40Q2.40-1.03 1.90-2.21Q1.41-3.39 1.41-5.43L1.41-5.43L1.41-12.86L3.11-12.86L3.11-5.44Q3.11-3.76 3.43-2.97Q3.74-2.18 4.50-1.75Q5.26-1.32 6.35-1.32L6.35-1.32Q8.23-1.32 9.03-2.17Q9.83-3.02 9.83-5.44L9.83-5.44Z" transform="translate(224.00384167968753 70.177763671875) " fill="#00188f" stroke="#00188f" stroke-width="0.03" data-glyph-w="12.977358398437499" data-glyph-h="20.075859375" data-glyph-ascender="16.267763671875" data-glyph-descender="-3.808095703125"></path><path d="M3.00 0L1.37 0L1.37-12.86L3.11-12.86L9.87-2.76L9.87-12.86L11.50-12.86L11.50 0L9.76 0L3.00-10.11L3.00 0Z" transform="translate(236.98120007812503 70.177763671875) " fill="#00188f" stroke="#00188f" stroke-width="0.03" data-glyph-w="12.977358398437499" data-glyph-h="20.075859375" data-glyph-ascender="16.267763671875" data-glyph-descender="-3.808095703125"></path><path d="M11.19-5.05L7.41-5.05L7.41-6.55L12.85-6.56L12.85-1.79Q11.60-0.79 10.27-0.29Q8.93 0.22 7.53 0.22L7.53 0.22Q5.63 0.22 4.08-0.59Q2.54-1.40 1.75-2.94Q0.96-4.47 0.96-6.37L0.96-6.37Q0.96-8.25 1.74-9.88Q2.53-11.50 4.00-12.29Q5.48-13.08 7.40-13.08L7.40-13.08Q8.79-13.08 9.92-12.63Q11.05-12.18 11.69-11.37Q12.33-10.56 12.66-9.27L12.66-9.27L11.13-8.84Q10.84-9.83 10.41-10.39Q9.98-10.95 9.18-11.29Q8.38-11.63 7.41-11.63L7.41-11.63Q6.24-11.63 5.39-11.27Q4.54-10.92 4.01-10.34Q3.49-9.76 3.20-9.06L3.20-9.06Q2.71-7.87 2.71-6.48L2.71-6.48Q2.71-4.76 3.30-3.60Q3.90-2.44 5.03-1.88Q6.16-1.32 7.43-1.32L7.43-1.32Q8.54-1.32 9.59-1.74Q10.64-2.17 11.19-2.65L11.19-2.65L11.19-5.05Z" transform="translate(249.95855847656253 70.177763671875) " fill="#00188f" stroke="#00188f" stroke-width="0.03" data-glyph-w="13.9776416015625" data-glyph-h="20.075859375" data-glyph-ascender="16.267763671875" data-glyph-descender="-3.808095703125"></path><path d="M9.35 0L1.32 0L1.32-12.86L3.02-12.86L3.02-1.52L9.35-1.52L9.35 0Z" transform="translate(263.936200078125 70.177763671875) " fill="#00188f" stroke="#00188f" stroke-width="0.03" data-glyph-w="9.994057617187499" data-glyph-h="20.075859375" data-glyph-ascender="16.267763671875" data-glyph-descender="-3.808095703125"></path><path d="M1.78 0L-0.03 0L4.91-12.86L6.75-12.86L12.01 0L10.07 0L8.57-3.90L3.19-3.90L1.78 0ZM5.10-9.06L3.69-5.28L8.05-5.28L6.70-8.84Q6.09-10.47 5.79-11.51L5.79-11.51Q5.55-10.27 5.10-9.06L5.10-9.06Z" transform="translate(273.9302576953125 70.177763671875) " fill="#00188f" stroke="#00188f" stroke-width="0.03" data-glyph-w="11.985849609374998" data-glyph-h="20.075859375" data-glyph-ascender="16.267763671875" data-glyph-descender="-3.808095703125"></path><path d="M0.81-4.13L0.81-4.13L2.41-4.27Q2.53-3.31 2.94-2.69Q3.36-2.07 4.24-1.69Q5.12-1.31 6.21-1.31L6.21-1.31Q7.19-1.31 7.93-1.60Q8.68-1.89 9.04-2.39Q9.41-2.90 9.41-3.49L9.41-3.49Q9.41-4.10 9.06-4.55Q8.70-5.00 7.90-5.31L7.90-5.31Q7.38-5.51 5.61-5.94Q3.83-6.36 3.12-6.74L3.12-6.74Q2.20-7.22 1.75-7.94Q1.30-8.65 1.30-9.54L1.30-9.54Q1.30-10.51 1.85-11.36Q2.40-12.21 3.47-12.64Q4.53-13.08 5.83-13.08L5.83-13.08Q7.26-13.08 8.35-12.62Q9.44-12.16 10.03-11.27Q10.62-10.37 10.66-9.24L10.66-9.24L9.03-9.12Q8.90-10.34 8.14-10.96Q7.38-11.58 5.90-11.58L5.90-11.58Q4.35-11.58 3.65-11.02Q2.94-10.45 2.94-9.65L2.94-9.65Q2.94-8.96 3.44-8.51L3.44-8.51Q3.93-8.06 6.01-7.59Q8.08-7.12 8.85-6.77L8.85-6.77Q9.98-6.26 10.51-5.46Q11.05-4.67 11.05-3.63L11.05-3.63Q11.05-2.61 10.46-1.70Q9.87-0.79 8.77-0.29Q7.67 0.22 6.29 0.22L6.29 0.22Q4.55 0.22 3.36-0.29Q2.18-0.80 1.51-1.82Q0.84-2.84 0.81-4.13Z" transform="translate(285.9161073046875 70.177763671875) " fill="#00188f" stroke="#00188f" stroke-width="0.03" data-glyph-w="11.985849609374998" data-glyph-h="20.075859375" data-glyph-ascender="16.267763671875" data-glyph-descender="-3.808095703125"></path><path d="M0.81-4.13L0.81-4.13L2.41-4.27Q2.53-3.31 2.94-2.69Q3.36-2.07 4.24-1.69Q5.12-1.31 6.21-1.31L6.21-1.31Q7.19-1.31 7.93-1.60Q8.68-1.89 9.04-2.39Q9.41-2.90 9.41-3.49L9.41-3.49Q9.41-4.10 9.06-4.55Q8.70-5.00 7.90-5.31L7.90-5.31Q7.38-5.51 5.61-5.94Q3.83-6.36 3.12-6.74L3.12-6.74Q2.20-7.22 1.75-7.94Q1.30-8.65 1.30-9.54L1.30-9.54Q1.30-10.51 1.85-11.36Q2.40-12.21 3.47-12.64Q4.53-13.08 5.83-13.08L5.83-13.08Q7.26-13.08 8.35-12.62Q9.44-12.16 10.03-11.27Q10.62-10.37 10.66-9.24L10.66-9.24L9.03-9.12Q8.90-10.34 8.14-10.96Q7.38-11.58 5.90-11.58L5.90-11.58Q4.35-11.58 3.65-11.02Q2.94-10.45 2.94-9.65L2.94-9.65Q2.94-8.96 3.44-8.51L3.44-8.51Q3.93-8.06 6.01-7.59Q8.08-7.12 8.85-6.77L8.85-6.77Q9.98-6.26 10.51-5.46Q11.05-4.67 11.05-3.63L11.05-3.63Q11.05-2.61 10.46-1.70Q9.87-0.79 8.77-0.29Q7.67 0.22 6.29 0.22L6.29 0.22Q4.55 0.22 3.36-0.29Q2.18-0.80 1.51-1.82Q0.84-2.84 0.81-4.13Z" transform="translate(297.9019569140625 70.177763671875) " fill="#00188f" stroke="#00188f" stroke-width="0.03" data-glyph-w="11.985849609374998" data-glyph-h="20.075859375" data-glyph-ascender="16.267763671875" data-glyph-descender="-3.808095703125"></path></g></svg></g></g><g id="shape_CjbILL1PWc" transform="translate(203.83224854050002,131.05098523699) rotate(0,179.62,214.35999999999999) scale(1,1)" filter="" style="opacity: 1;"><g><svg xmlns="http://www.w3.org/2000/svg" version="1.1" xmlns:xlink="http://www.w3.org/1999/xlink" width="478.48" height="428.71999999999997" viewBox="0 0 478.48 428.71999999999997"><g data-width="238.48" transform="translate(59.62, 0)"><path d="M2.85-19.62L2.85 1.46Q2.85 2.79 4.19 2.79L4.19 2.79L10.48 2.79Q11.82 2.79 11.82 1.46L11.82 1.46L11.82-10.71L47.74-10.71L47.74 1.46Q47.74 2.79 49.08 2.79L49.08 2.79L55.37 2.79Q56.71 2.79 56.71 1.46L56.71 1.46L56.71-19.62Q56.71-20.09 56.48-20.44L56.48-20.44L41.11-41.57Q40.70-42.09 40.00-42.09L40.00-42.09L19.56-42.09Q18.92-42.09 18.51-41.57L18.51-41.57L3.14-20.44Q2.85-20.09 2.85-19.62L2.85-19.62ZM47.74-14.03L11.82-14.03L11.82-16.71Q11.82-17.18 12.11-17.53L12.11-17.53L27.13-38.19Q27.54-38.72 28.24-38.72L28.24-38.72L31.38-38.72Q32.02-38.72 32.43-38.19L32.43-38.19L47.51-17.53Q47.74-17.18 47.74-16.71L47.74-16.71L47.74-14.03Z" transform="translate(0 235.85999999999999) " fill="#00188f" stroke="#00188f" stroke-width="0.099" data-glyph-w="59.62" data-glyph-h="58.22265625" data-glyph-ascender="51.2359375" data-glyph-descender="-6.98671875"></path><path d="M4.19 2.74L50.01 2.74Q51.70 2.74 53.39 1.86L53.39 1.86Q56.71 0.17 56.71-4.02L56.71-4.02Q56.71-6.81 54.50-9.08L54.50-9.08Q53.22-10.36 52.23-10.77L52.23-10.77L12.93-34.99Q11.82-35.46 11.82-36.56L11.82-36.56Q11.82-38.78 14.09-38.78L14.09-38.78L55.37-38.78Q56.71-38.78 56.71-40.17L56.71-40.17L56.71-40.81Q56.71-42.15 55.37-42.15L55.37-42.15L9.61-42.15Q7.92-42.15 6.23-41.34L6.23-41.34Q2.85-39.65 2.85-35.46L2.85-35.46Q2.85-32.60 5.07-30.39L5.07-30.39Q6.35-29.11 7.34-28.70L7.34-28.70L46.64-4.48Q47.74-4.02 47.74-2.91L47.74-2.91Q47.74-0.64 45.53-0.64L45.53-0.64L4.19-0.64Q2.85-0.64 2.85 0.70L2.85 0.70L2.85 1.40Q2.85 2.74 4.19 2.74L4.19 2.74Z" transform="translate(59.62 235.85999999999999) " fill="#00188f" stroke="#00188f" stroke-width="0.099" data-glyph-w="59.62" data-glyph-h="58.22265625" data-glyph-ascender="51.2359375" data-glyph-descender="-6.98671875"></path><path d="M4.19 2.74L50.01 2.74Q51.70 2.74 53.39 1.86L53.39 1.86Q56.71 0.17 56.71-4.02L56.71-4.02Q56.71-6.81 54.50-9.08L54.50-9.08Q53.22-10.36 52.23-10.77L52.23-10.77L12.93-34.99Q11.82-35.46 11.82-36.56L11.82-36.56Q11.82-38.78 14.09-38.78L14.09-38.78L55.37-38.78Q56.71-38.78 56.71-40.17L56.71-40.17L56.71-40.81Q56.71-42.15 55.37-42.15L55.37-42.15L9.61-42.15Q7.92-42.15 6.23-41.34L6.23-41.34Q2.85-39.65 2.85-35.46L2.85-35.46Q2.85-32.60 5.07-30.39L5.07-30.39Q6.35-29.11 7.34-28.70L7.34-28.70L46.64-4.48Q47.74-4.02 47.74-2.91L47.74-2.91Q47.74-0.64 45.53-0.64L45.53-0.64L4.19-0.64Q2.85-0.64 2.85 0.70L2.85 0.70L2.85 1.40Q2.85 2.74 4.19 2.74L4.19 2.74Z" transform="translate(119.24 235.85999999999999) " fill="#00188f" stroke="#00188f" stroke-width="0.099" data-glyph-w="59.62" data-glyph-h="58.22265625" data-glyph-ascender="51.2359375" data-glyph-descender="-6.98671875"></path><path d="M55.37-42.09L9.61-42.09Q7.92-42.09 6.23-41.28L6.23-41.28Q2.85-39.59 2.85-35.40L2.85-35.40L2.85-3.96Q2.85 0.23 6.23 1.92L6.23 1.92Q7.92 2.79 9.61 2.79L9.61 2.79L50.01 2.79Q51.70 2.79 53.39 1.92L53.39 1.92Q56.71 0.23 56.71-3.96L56.71-3.96L56.71-20.55Q56.71-21.89 55.37-21.89L55.37-21.89L11.82-21.89L11.82-36.51Q11.82-38.72 14.09-38.72L14.09-38.72L55.37-38.72Q56.71-38.72 56.71-40.12L56.71-40.12L56.71-40.76Q56.71-42.09 55.37-42.09L55.37-42.09ZM11.82-2.85L11.82-18.57L46.40-18.57Q47.74-18.57 47.74-17.18L47.74-17.18L47.74-2.85Q47.74-0.58 45.53-0.58L45.53-0.58L14.09-0.58Q11.82-0.58 11.82-2.85L11.82-2.85Z" transform="translate(178.85999999999999 235.85999999999999) " fill="#00188f" stroke="#00188f" stroke-width="0.099" data-glyph-w="59.62" data-glyph-h="58.22265625" data-glyph-ascender="51.2359375" data-glyph-descender="-6.98671875"></path></g></svg></g></g></svg>